<?xml version="1.0" encoding="utf-8"?>
<!-- Generator: Adobe Illustrator 15.1.0, SVG Export Plug-In . SVG Version: 6.00 Build 0)  -->
<!DOCTYPE svg PUBLIC "-//W3C//DTD SVG 1.1//EN" "http://www.w3.org/Graphics/SVG/1.1/DTD/svg11.dtd">
<svg version="1.1"
	 id="svg2" xmlns:svg="http://www.w3.org/2000/svg" xmlns:dc="http://purl.org/dc/elements/1.1/" xmlns:rdf="http://www.w3.org/1999/02/22-rdf-syntax-ns#" xmlns:cc="http://creativecommons.org/ns#"
	 xmlns="http://www.w3.org/2000/svg" xmlns:xlink="http://www.w3.org/1999/xlink" x="0px" y="0px" width="198px" height="198px"
	 viewBox="1 1 198 198" enable-background="new 1 1 198 198" xml:space="preserve">
<path id="path8220" fill="#FFFFFF" d="M99.99,1C75.826,1,53.679,9.673,36.483,24.065c1.489,0.675,2.827,1.648,3.906,2.853
	C56.63,13.647,77.379,5.708,99.99,5.708c22.743,0,43.626,8.05,59.912,21.495c1.058-1.239,2.357-2.244,3.82-2.971
	C146.492,9.725,124.275,1,99.99,1z M99.99,10.262c-17.31,0-33.457,4.908-47.144,13.389H69.44v7.766h-7.758v67.207h-7.801V31.417
	h-7.766v-3.172c-1.133,0.864-2.267,1.738-3.354,2.64c0.417,1.209,0.639,2.466,0.639,3.789v8.512h-7.781v-5.687
	c-2.778,2.88-5.37,5.922-7.746,9.151v10.607h7.746c4.327,0,7.781,3.469,7.781,7.778v22.564c0,6.411-5.241,11.657-11.645,11.657
	c-6.412,0-11.665-5.246-11.665-11.657v-8.492h7.782v11.744h7.746V65.034h-7.746c-3.767,0-6.873-2.648-7.616-6.188
	c-6.374,12.323-9.964,26.291-9.964,41.134c0,21.422,7.528,41.109,20.089,56.552v-45.637h-7.782v-7.763h23.305v7.763h-7.77v54.046
	c3.888,3.694,8.125,7.043,12.607,9.999v-71.808h7.766v33.594h7.766v-33.594h7.785v74.961h-7.785v-33.609h-7.766v33.609h-2.604
	c13.012,7.37,28.052,11.586,44.085,11.586c16.723,0,32.407-4.607,45.821-12.588l-2.502-73.959h7.896
	c0.096,13.441,0.395,26.977,0.395,40.424c0,4.832-0.209,9.648-0.209,14.486h0.209c1.373-12.391,3.379-20.693,4.621-29.189h6.516
	c1.242,8.496,3.234,16.799,4.625,29.189h0.181c0-4.838-0.181-9.654-0.181-14.486c0-13.447,0.309-26.982,0.422-40.424h7.856
	l-1.595,47.421c9.849-14.407,15.631-31.823,15.631-50.573c0-23.999-9.418-45.774-24.758-61.867v19.143h7.781
	c4.309,0,7.774,3.469,7.774,7.778v22.564c0,6.411-5.253,11.657-11.657,11.657c-6.4,0-11.66-5.246-11.66-11.657v-8.492h7.762v11.744
	h7.781V65.034h-7.781c-4.297,0-7.762-3.469-7.762-7.778V34.672c0-1.175,0.18-2.313,0.521-3.386c-1.388-1.156-2.828-2.29-4.298-3.37
	v3.5h-15.516v25.839h11.648v7.778h-11.648v25.815h15.516v7.774h-15.516c-4.319,0-7.786-3.462-7.786-7.774V31.417
	c0-4.301,3.467-7.766,7.786-7.766h9.249C133.427,15.17,117.288,10.262,99.99,10.262z M83.812,23.027
	c6.408,0,11.652,5.237,11.652,11.645v52.925c0,6.411-5.245,11.657-11.652,11.657c-6.404,0-11.653-5.246-11.653-11.657V34.672
	C72.159,28.264,77.407,23.027,83.812,23.027z M101.131,23.651h7.344c2.731,15.764,6.717,31.296,9.023,47.997h0.21
	c-0.409-6.313-1.05-19.649-1.05-26.258V23.651h7.773v74.972h-7.355c-2.713-15.749-6.713-31.282-9.013-47.993h-0.213
	c0.409,6.309,1.038,19.63,1.038,26.273v13.61h0.02v8.109h-0.02h-1.425c0.064,0.443,0.103,0.895,0.103,1.361h-0.126v0.02h0.165
	c0,2.815-1.537,5.244-3.799,6.578c0.825,1.232,1.31,2.718,1.31,4.313v23.739c0,3.551-1.56,4.93-3.469,5.979
	c1.909,0.731,3.469,2.303,3.469,6.922v24.986c0,2.107,0.848,3.686,1.886,5.572h-7.979c-0.841-1.588-1.685-3.678-1.685-5.572v-28.037
	h-7.778v33.609h-7.75v-74.961h11.23c-0.417-0.966-0.679-2.011-0.679-3.129h0.032v-0.02h-0.047c0-4.21,3.417-7.616,7.624-7.616
	c0.391,0,0.786,0.05,1.161,0.11v-1.965V23.651z M164.918,31.417v0.221c2.759,2.618,5.356,5.405,7.781,8.338v-7.178
	c-0.436-0.455-0.857-0.896-1.286-1.381H164.918z M28.595,31.421c-0.235,0.257-0.499,0.516-0.73,0.781v7.056
	c2.308-2.748,4.792-5.366,7.411-7.837H28.595z M79.94,31.472v59.42h7.777v-59.42H79.94z M20.091,41.542
	C8.09,57.924,1,78.132,1,100.004c0,27.545,11.224,52.452,29.378,70.395v-6.85C15.054,146.78,5.724,124.467,5.724,99.98
	c0-18.405,5.258-35.57,14.367-50.068V41.542z M180.474,42.304v0.876h-5.241c11.941,15.798,19.024,35.477,19.024,56.796
	c0,22.16-7.653,42.55-20.476,58.646l-0.261,7.684C189.363,148.758,199,125.511,199,100.008
	C199,78.469,192.118,58.553,180.474,42.304z M99.931,96.358c-1.978,0-3.579,1.601-3.579,3.575c0,1.974,1.601,3.555,3.579,3.555
	c1.962,0,3.559-1.581,3.559-3.555C103.49,97.958,101.894,96.358,99.931,96.358z M124.535,102.506
	c6.407,0,11.645,5.244,11.645,11.633v52.934c0,6.396-5.237,11.648-11.645,11.648c-6.42,0-11.661-5.252-11.661-11.648v-52.934
	C112.874,107.75,118.115,102.506,124.535,102.506z M120.659,110.946v59.433h7.79v-59.433H120.659z M89.604,110.951v25.818h7.77
	v-25.818H89.604z M159.374,139.654c-0.913,12.805-2.981,22.469-4.861,31.529c2.937-2.266,5.776-4.736,8.437-7.352
	c-1.391-7.021-2.688-14.754-3.358-24.178H159.374z M164.046,169.136c-3.421,3.168-7.068,6.079-10.919,8.71
	c-0.025,0.078-0.047,0.172-0.047,0.248h-0.316c-15.065,10.193-33.236,16.14-52.77,16.14c-23.676,0-45.295-8.697-61.862-23.104v6.18
	C55.082,190.878,76.595,199,99.994,199c24.957,0,47.742-9.221,65.168-24.458C164.787,172.754,164.41,170.963,164.046,169.136
	L164.046,169.136z"/>
</svg>
