<?xml version="1.0" encoding="utf-8"?>
<!-- Generator: Adobe Illustrator 15.1.0, SVG Export Plug-In . SVG Version: 6.00 Build 0)  -->
<!DOCTYPE svg PUBLIC "-//W3C//DTD SVG 1.1//EN" "http://www.w3.org/Graphics/SVG/1.1/DTD/svg11.dtd">
<svg version="1.1" id="Layer_1" xmlns="http://www.w3.org/2000/svg" xmlns:xlink="http://www.w3.org/1999/xlink" x="0px" y="0px"
	 width="68.707px" height="68.712px" viewBox="12.806 3.145 68.707 68.712" enable-background="new 12.806 3.145 68.707 68.712"
	 xml:space="preserve">
<g>
	<path fill="#FFFFFF" d="M71.139,12.873C57.559-0.343,35.755-0.06,22.531,13.514C9.314,27.103,9.604,48.904,23.184,62.127
		c13.576,13.223,35.373,12.932,48.604-0.65C85,47.905,84.716,26.098,71.139,12.873 M65.854,55.698
		c-10.043,10.309-26.588,10.528-36.892,0.493c-10.31-10.038-10.528-26.585-0.497-36.899C38.502,8.989,55.053,8.774,65.36,18.805
		C75.667,28.844,75.882,45.397,65.854,55.698z"/>
	<path fill="#FFFFFF" d="M62.709,21.975l-11.694,0.003l3.402,3.402L28.09,51.707c0.688,0.92,1.439,1.791,2.25,2.603
		c0.845,0.845,1.754,1.624,2.717,2.335L59.37,30.333l3.379,3.38L62.709,21.975 M34.375,18.353l3.403,3.402L23.418,36.117
		c-0.032,0.562-0.052,1.129-0.045,1.7c0.032,2.469,0.444,4.843,1.174,7.074L42.73,26.707l3.378,3.38L46.07,18.35L34.375,18.353z
		 M66.255,38.535l-11.694,0.003l3.403,3.402L39.791,60.113c2.419,0.79,5.003,1.211,7.688,1.176l0,0
		c0.363-0.004,0.723-0.02,1.081-0.041l14.354-14.354l3.38,3.378L66.255,38.535z"/>
</g>
</svg>
