<?xml version="1.0" encoding="utf-8"?>
<!-- Generator: Adobe Illustrator 15.1.0, SVG Export Plug-In . SVG Version: 6.00 Build 0)  -->
<!DOCTYPE svg PUBLIC "-//W3C//DTD SVG 1.1//EN" "http://www.w3.org/Graphics/SVG/1.1/DTD/svg11.dtd">
<svg version="1.1" id="Layer_1" xmlns="http://www.w3.org/2000/svg" xmlns:xlink="http://www.w3.org/1999/xlink" x="0px" y="0px"
	 width="170px" height="110px" viewBox="0 0 170 110" enable-background="new 0 0 170 110" xml:space="preserve">
<path fill="#FFFFFF" d="M55,33.999c-11.58,0-21,9.42-21,21c0,11.581,9.42,21,21,21s21-9.42,21-21C76,43.419,66.58,33.999,55,33.999z
	 M55,64.36c-5.17,0-9.359-4.19-9.359-9.36c0-5.17,4.189-9.36,9.359-9.36s9.359,4.19,9.359,9.36C64.359,60.17,60.17,64.36,55,64.36z"
	/>
<path fill="#FFFFFF" d="M149,0H21C9.42,0,0,9.42,0,21v68c0,11.58,9.42,21,21,21h128c11.58,0,21-9.42,21-21V21
	C170,9.42,160.58,0,149,0z M55,85.999c-17.093,0-31-13.906-31-31c0-17.093,13.907-31,31-31s31,13.907,31,31
	C86,72.093,72.093,85.999,55,85.999z M140.25,77.999h-34.5c-2.762,0-5-2.238-5-5s2.238-5,5-5h34.5c2.76,0,5,2.238,5,5
	S143.01,77.999,140.25,77.999z M140.25,59.999h-34.5c-2.762,0-5-2.238-5-5c0-2.761,2.238-5,5-5h34.5c2.76,0,5,2.239,5,5
	C145.25,57.761,143.01,59.999,140.25,59.999z M140.25,41.999h-34.5c-2.762,0-5-2.239-5-5s2.238-5,5-5h34.5c2.76,0,5,2.239,5,5
	S143.01,41.999,140.25,41.999z"/>
</svg>
