<?xml version="1.0" encoding="utf-8"?>
<!-- Generator: Adobe Illustrator 15.1.0, SVG Export Plug-In . SVG Version: 6.00 Build 0)  -->
<!DOCTYPE svg PUBLIC "-//W3C//DTD SVG 1.1//EN" "http://www.w3.org/Graphics/SVG/1.1/DTD/svg11.dtd">
<svg version="1.1"
	 id="svg2" xmlns:rdf="http://www.w3.org/1999/02/22-rdf-syntax-ns#" xmlns:dc="http://purl.org/dc/elements/1.1/" xmlns:svg="http://www.w3.org/2000/svg" sodipodi:docname="Vevo 2013.svg" inkscape:version="0.48.2 r9819" xmlns:cc="http://creativecommons.org/ns#" xmlns:sodipodi="http://sodipodi.sourceforge.net/DTD/sodipodi-0.dtd" xmlns:inkscape="http://www.inkscape.org/namespaces/inkscape"
	 xmlns="http://www.w3.org/2000/svg" xmlns:xlink="http://www.w3.org/1999/xlink" x="0px" y="0px" width="200px" height="49.613px"
	 viewBox="0 0 200 49.613" enable-background="new 0 0 200 49.613" xml:space="preserve">
<sodipodi:namedview  inkscape:window-width="1920" inkscape:pageshadow="2" inkscape:document-units="px" inkscape:pageopacity="0.0" inkscape:current-layer="layer1" fit-margin-right="0.5" fit-margin-bottom="0.5" inkscape:zoom="0.49497475" fit-margin-left="0.5" showgrid="false" id="base" borderopacity="1.0" inkscape:window-x="-8" inkscape:window-y="-8" inkscape:cx="731.32771" fit-margin-top="0.5" bordercolor="#666666" pagecolor="#ffffff" inkscape:window-maximized="1" inkscape:cy="68.588441" inkscape:window-height="1028">
	<inkscape:grid  enabled="true" type="xygrid" snapvisiblegridlinesonly="true" id="grid2996" empspacing="5" visible="true">
		</inkscape:grid>
</sodipodi:namedview>
<g id="layer1" transform="translate(-94.500004,-483.26154)" inkscape:label="Layer 1" inkscape:groupmode="layer">
	<g id="g3012" transform="matrix(0.36551487,0,0,0.36551487,60.276091,337.78404)">
		<path id="path2998" inkscape:connector-curvature="0" sodipodi:nodetypes="cccccccccc" fill="#FFFFFF" d="M95,402.362
			l26.518,104.823c3.392,13.417,9.573,23.73,23.571,23.73c11.247,0,19.095-4.916,28.286-17.946L248,402.362h-27.001
			c-21.94,0-27.934,9.589-33.732,18.358l-31.535,47.287l-16.465-65.645H95z"/>
		<path id="path3000" inkscape:connector-curvature="0" fill="#FFFFFF" d="M306.625,399.375c-50.76,0-79.625,42.38-79.625,76
			c0,36.074,26.086,56.999,62.719,56.999c35.411,0,60.646-23.755,69.718-42.999H311c-2.74,2.616-8.984,7-19,7
			c-12.651,0-21.999-9.228-21.999-19.001H353c9.366,0,15-0.826,15-21.029C368,423.942,345.648,399.375,306.625,399.375z
			 M303.094,435.375c13.321,0,20.906,10.401,20.906,14c0,1.273-1.105,2-2.188,2H276
			C278.765,446.276,288.155,435.375,303.094,435.375z"/>
		<path id="path3004" inkscape:connector-curvature="0" fill="#FFFFFF" d="M578.281,399.375c-49.248,0-79.281,40.334-79.281,76.281
			c0,30.402,20.273,56.718,62,56.718c43.672,0,78.437-35.443,78.437-77C639.437,422.994,615.576,399.375,578.281,399.375z
			 M574.188,438.719c16.677,0,20.813,13.594,20.813,20.657c0,16.272-13.816,33.687-30.72,33.687c-13.727,0-21-9.709-21-20.687
			C543.281,455.503,557.735,438.719,574.188,438.719z"/>
		<path id="path3008" inkscape:connector-curvature="0" sodipodi:nodetypes="cccccccccc" fill="#FFFFFF" d="M368.613,402.362
			l26.52,104.823c3.393,13.417,9.573,23.73,23.57,23.73c11.248,0,19.098-4.916,28.286-17.946l74.625-110.608h-27.001
			c-21.94,0-27.933,9.589-33.731,18.358l-31.535,47.287l-16.463-65.645H368.613z"/>
	</g>
</g>
</svg>
