<?xml version="1.0" encoding="utf-8"?>
<!-- Generator: Adobe Illustrator 15.1.0, SVG Export Plug-In  -->
<!DOCTYPE svg PUBLIC "-//W3C//DTD SVG 1.1//EN" "http://www.w3.org/Graphics/SVG/1.1/DTD/svg11.dtd" [
	<!ENTITY ns_flows "http://ns.adobe.com/Flows/1.0/">
]>
<svg version="1.1"
	 xmlns="http://www.w3.org/2000/svg" xmlns:xlink="http://www.w3.org/1999/xlink" xmlns:a="http://ns.adobe.com/AdobeSVGViewerExtensions/3.0/"
	 x="0px" y="0px" width="369px" height="49px" viewBox="0 0 369 49" overflow="visible" enable-background="new 0 0 369 49"
	 xml:space="preserve">
<defs>
</defs>
<path fill="#FFFFFF" d="M40.984,7.721c-0.104-0.111-0.208-0.224-0.315-0.332C38.03,4.75,34.384,3.118,30.357,3.118
	c-4.027,0-7.673,1.632-10.312,4.271c-0.704,0.705-1.33,1.485-1.878,2.321l0.001,0.002c-0.041,0.067-0.066,0.146-0.066,0.229
	c0,0.244,0.196,0.439,0.439,0.439c0.055,0,0.107-0.011,0.156-0.029l0.002,0.002c1.673-0.617,3.478-0.961,5.366-0.961
	c4.209,0,8.057,1.705,10.855,4.424c0.009,0.009,0.019,0.018,0.029,0.025c0.006,0.008,0.013,0.014,0.02,0.02l0.001-0.002
	c0.074,0.059,0.167,0.095,0.269,0.095c0,0,0,0,0.001,0h5.456c0.242,0,0.439-0.196,0.439-0.438V8.04h-0.001
	C41.131,7.912,41.074,7.799,40.984,7.721"/>
<path fill="#FFFFFF" d="M40.678,25.062h-3.601h-1.183h-0.797h-0.001l0.001-0.004c-2.927,0-5.323-2.25-5.533-5.123h-0.003
	c-0.017-0.228-0.204-0.406-0.436-0.406c-0.013,0-0.025,0.002-0.038,0.003v-0.001c-0.016,0.002-0.031,0.005-0.047,0.006
	c-0.001,0-0.003,0-0.004,0.001c-1.205,0.11-2.299,0.601-3.157,1.356c-0.008,0.008-0.016,0.015-0.024,0.021
	c-0.052,0.047-0.103,0.094-0.153,0.143c-0.013,0.012-0.026,0.024-0.039,0.037c-0.046,0.045-0.09,0.09-0.135,0.138
	c-0.015,0.016-0.032,0.032-0.047,0.05c-0.041,0.044-0.081,0.089-0.12,0.134c-0.018,0.021-0.037,0.041-0.055,0.062
	c-0.036,0.045-0.071,0.089-0.106,0.133c-0.02,0.023-0.039,0.049-0.058,0.072c-0.033,0.043-0.065,0.086-0.096,0.131
	c-0.02,0.027-0.04,0.055-0.06,0.083c-0.029,0.042-0.057,0.085-0.085,0.128c-0.021,0.029-0.04,0.061-0.06,0.092
	c-0.026,0.042-0.052,0.084-0.077,0.127c-0.02,0.033-0.039,0.066-0.058,0.102c-0.023,0.041-0.046,0.082-0.068,0.125
	c-0.02,0.035-0.038,0.072-0.056,0.108c-0.021,0.041-0.041,0.083-0.061,0.125c-0.018,0.038-0.035,0.077-0.053,0.116
	c-0.018,0.041-0.036,0.082-0.053,0.124c-0.017,0.041-0.033,0.082-0.049,0.124c-0.015,0.04-0.031,0.081-0.046,0.122
	c-0.015,0.043-0.03,0.087-0.044,0.131c-0.013,0.04-0.027,0.081-0.039,0.121c-0.014,0.046-0.027,0.093-0.04,0.139
	c-0.011,0.04-0.022,0.079-0.032,0.119c-0.012,0.048-0.023,0.099-0.034,0.147c-0.008,0.039-0.017,0.076-0.025,0.115
	c-0.011,0.051-0.019,0.104-0.028,0.156c-0.007,0.037-0.014,0.074-0.019,0.111c-0.009,0.057-0.015,0.113-0.022,0.171
	c-0.004,0.032-0.009,0.067-0.012,0.101c-0.007,0.067-0.011,0.135-0.016,0.201c-0.001,0.025-0.004,0.051-0.005,0.075
	c-0.004,0.093-0.007,0.187-0.007,0.28v0.002c0,0,0,0,0,0.002c0,0.037,0.002,0.074,0.003,0.111c0.061,3.012,2.52,5.436,5.547,5.436
	h2.705h1.335c0.242,0,0.439,0.196,0.439,0.438v1.521c0,0.242,0.196,0.438,0.438,0.438c0.04,0,0.077-0.007,0.113-0.016
	c2.379-0.506,4.563-1.577,6.382-3.058l-0.002-0.001c0.097-0.081,0.16-0.2,0.16-0.336c0-0.01-0.002-0.018-0.003-0.026l0.003-0.001
	v-1.9v-0.368v-1.803C41.117,25.258,40.919,25.062,40.678,25.062"/>
<path fill="#FFFFFF" d="M40.415,41.535c-0.048,0-0.094,0.01-0.137,0.023l-0.001-0.002c-0.01,0.004-0.02,0.009-0.029,0.012
	c-0.002,0.001-0.004,0.002-0.005,0.002c-2.842,1.101-5.977,1.72-9.207,1.72c-14.01,0-25.368-11.358-25.368-25.368
	c0-3.254,0.614-6.363,1.731-9.222H7.398c0.019-0.05,0.031-0.103,0.031-0.16c0-0.243-0.197-0.438-0.439-0.438
	c-0.14,0-0.263,0.066-0.343,0.168L6.645,8.268C2.517,12.592,0,18.425,0,24.874c0,13.301,10.783,24.084,24.084,24.084
	c6.458,0,12.288-2.51,16.613-6.648l-0.001-0.001c0.096-0.081,0.158-0.199,0.158-0.335C40.854,41.731,40.657,41.535,40.415,41.535"/>
<path fill="#FFFFFF" d="M91.627,29.737h13.274c3.136,0,5.326-2.054,5.326-4.992v-0.527c0-0.249-0.202-0.45-0.451-0.45H91.627
	c-0.249,0-0.451,0.201-0.451,0.45v5.068C91.176,29.535,91.378,29.737,91.627,29.737"/>
<path fill="#FFFFFF" d="M110.912,4.596H91.627c-0.25,0-0.452,0.202-0.452,0.451v5.068c0,0.248,0.202,0.45,0.452,0.45h14.409
	c3.136,0,5.326-2.053,5.326-4.991V5.047C111.363,4.798,111.161,4.596,110.912,4.596"/>
<path fill="#FFFFFF" d="M110.912,42.981c-0.003,0-0.005,0.001-0.008,0.002h-22.84c-3.722,0-5.856-2.134-5.856-5.855V2.186V0.736
	c0-0.248-0.202-0.45-0.452-0.45c-0.016,0-0.03-0.002-0.046,0c-4.161,0.097-6.646,2.655-6.646,6.864v34.938
	c0,4.302,2.568,6.87,6.868,6.87h24.04c3.176,0,5.391-2.077,5.391-5.053v-0.474C111.363,43.183,111.161,42.981,110.912,42.981"/>
<path fill="#FFFFFF" d="M155.915,42.891l0.001-0.004c-2.082-0.479-3.45-2.249-3.45-4.688V1.164v-0.22
	c0-0.175-0.102-0.321-0.247-0.397l0.002-0.002c-0.004-0.002-0.008-0.002-0.012-0.004c-0.02-0.01-0.04-0.015-0.061-0.021
	c-0.42-0.176-0.99-0.182-1.364-0.182c-3.263,0-5.461,2.332-5.461,5.795v37.03c0,3.468,2.198,5.795,5.461,5.795
	c3.175,0,5.36-2.247,5.444-5.596v-0.048C156.228,43.113,156.095,42.949,155.915,42.891"/>
<path fill="#FFFFFF" d="M186.39,42.919c-0.01,0-0.018,0.005-0.027,0.005c-0.316,0.028-0.674,0.057-0.854,0.064
	c-3.441,0.14-5.081-1.571-6.601-4.107l-16.692-27.8l-0.004,0.002c-0.076-0.144-0.223-0.245-0.395-0.245
	c-0.25,0-0.451,0.202-0.451,0.452c0,0.01,0.005,0.019,0.005,0.028l-0.005,0.002v15.477l10.547,17.563
	c1.432,2.391,3.326,4.598,7.463,4.598c3.887,0,6.525-1.914,7.438-5.405l0.027-0.183C186.841,43.121,186.638,42.919,186.39,42.919"/>
<path fill="#FFFFFF" d="M182.949,28.543c0.248,0,0.451-0.201,0.451-0.45c0-0.013-0.006-0.022-0.007-0.034l0.007-0.002V1.168V0.937
	c0-0.209-0.146-0.378-0.341-0.429l0.002-0.006c-0.437-0.095-0.954-0.164-1.34-0.164c-3.269,0-5.46,2.328-5.46,5.795v11.682
	l6.268,10.439C182.595,28.422,182.756,28.543,182.949,28.543"/>
<path fill="#FFFFFF" d="M231.605,42.875v-0.007l-0.047-0.01c-2.107-0.465-3.363-2.202-3.363-4.659V1.164V0.939
	c0-0.221-0.162-0.396-0.373-0.435V0.494l-0.01-0.003c-0.465-0.107-0.889-0.153-1.301-0.153c-3.264,0-5.461,2.331-5.461,5.794v37.031
	c0,3.468,2.197,5.794,5.461,5.794c3.176,0,5.361-2.247,5.445-5.594v-0.056C231.957,43.091,231.808,42.918,231.605,42.875"/>
<path fill="#FFFFFF" d="M300.72,40.952c-0.082,0-0.156,0.029-0.223,0.068l-0.174,0.079c-2.66,1.253-5.775,1.884-9.26,1.884
	c-5.984,0-10.695-1.768-14.002-5.248c-3.438-3.629-5.186-8.946-5.186-15.811V0.829V0.605c0-0.222-0.162-0.397-0.373-0.436V0.159
	l-0.006-0.002C271.029,0.05,270.605,0,270.197,0c-3.264,0-5.459,2.331-5.459,5.794v21.095c0,14.026,7.359,22.068,20.191,22.068
	c7.023,0,12.561-2.451,16.014-7.097l0.131-0.175l-0.004-0.006c0.061-0.077,0.102-0.17,0.102-0.276
	C301.171,41.154,300.97,40.952,300.72,40.952"/>
<path fill="#FFFFFF" d="M300.958,0.168V0.155C300.494,0.051,300.07,0,299.664,0c-3.266,0-5.461,2.332-5.461,5.793v21.435
	c0,2.684-0.387,4.95-1.156,6.726l-0.033,0.077c-0.002,0.004-0.004,0.008-0.006,0.011l-0.006,0.015l0.004,0.003
	c-0.018,0.048-0.031,0.099-0.031,0.152c0,0.25,0.201,0.452,0.451,0.452l0.18-0.02c5.137-1.005,7.738-5.172,7.738-12.386V0.834V0.605
	C301.343,0.379,301.175,0.2,300.958,0.168"/>
<path fill="#FFFFFF" d="M348.4,28.858l5.094,0.937c5.502,0.997,6.143,3.022,6.146,4.455v0.056h0.004c0,0.25,0.201,0.452,0.451,0.452
	c0.023,0,0.045-0.011,0.068-0.014v0.012l0.043-0.005c4.057-0.524,6.576-2.615,6.576-5.461c0-2.818-2.285-4.599-6.975-5.451
	l-5.094-0.937c-11.891-2.179-14.385-8.617-14.385-13.637c0-2.62,0.715-4.982,2.135-7.036l0.162-0.233h-0.004
	c0.031-0.062,0.055-0.129,0.055-0.202c0-0.25-0.203-0.452-0.451-0.452c-0.049,0-0.094,0.014-0.139,0.027V1.367l-0.006,0.004
	c-0.025,0.009-0.047,0.02-0.07,0.033l-0.174,0.078c-5.492,2.545-8.65,7.189-8.65,12.752C333.187,21.869,338.591,27.061,348.4,28.858
	"/>
<path fill="#FFFFFF" d="M368.007,40.87c-0.053,0-0.1,0.013-0.146,0.03l-0.002-0.005l-0.021,0.009
	c-0.004,0.002-0.008,0.004-0.014,0.007l-0.182,0.083c-2.895,1.321-6.303,1.989-10.137,1.989c-6.033,0-11.346-1.768-16.238-5.392
	c-1.285-0.965-1.98-2.197-2.01-3.569l-0.002-0.035h-0.006c0-0.209-0.145-0.377-0.338-0.429l-0.012-0.005
	c-0.484-0.146-0.982-0.227-1.471-0.227c-1.609,0-3.121,0.816-4.141,2.235c-0.932,1.189-1.34,2.608-1.156,3.989
	c0.193,1.466,1.021,2.781,2.398,3.816c5.076,3.763,10.584,5.589,16.84,5.589c7.598,0,13.754-2.633,16.895-7.221l0.111-0.165
	l-0.002-0.002c0.049-0.072,0.084-0.154,0.084-0.248C368.458,41.072,368.255,40.87,368.007,40.87"/>
<path fill="#FFFFFF" d="M349.287,8.781c0.027,0.225,0.209,0.4,0.439,0.4v0.002l0.074-0.005c0.088-0.005,0.172-0.009,0.26-0.019
	c0.15-0.009,0.293-0.019,0.439-0.019c4.117,0,6.387,1.094,9.143,3.11c1.139,0.853,2.371,1.303,3.568,1.303h0.002
	c1.596,0,3.094-0.807,4.092-2.197c0.805-1.029,1.219-2.238,1.199-3.486V7.832h-0.006c0-0.207-0.141-0.375-0.33-0.428V7.4
	l-0.021-0.006c-0.607-0.182-1.199-0.491-1.771-0.918c-2.863-2.096-5.371-3.309-9.742-3.309c-4.428,0-7.545,2.061-7.4,5.125
	c0.006,0.105,0.023,0.304,0.041,0.488H349.287z"/>
</svg>
