<?xml version="1.0" encoding="utf-8"?>
<!-- Generator: Adobe Illustrator 15.1.0, SVG Export Plug-In . SVG Version: 6.00 Build 0)  -->
<!DOCTYPE svg PUBLIC "-//W3C//DTD SVG 1.1//EN" "http://www.w3.org/Graphics/SVG/1.1/DTD/svg11.dtd">
<svg version="1.1" id="Layer_1" xmlns="http://www.w3.org/2000/svg" xmlns:xlink="http://www.w3.org/1999/xlink" x="0px" y="0px"
	 width="45.84px" height="41.135px" viewBox="-2.353 5.471 45.84 41.135" enable-background="new -2.353 5.471 45.84 41.135"
	 xml:space="preserve">
<g>
	<path fill="#FFFFFF" d="M2.25,5.622C2.139,5.726,2.026,5.83,1.918,5.937c-2.639,2.639-4.271,6.285-4.271,10.312
		s1.632,7.673,4.271,10.312c0.705,0.704,1.485,1.33,2.321,1.878l0.002-0.001c0.067,0.041,0.146,0.066,0.229,0.066
		c0.244,0,0.439-0.196,0.439-0.439c0-0.055-0.011-0.107-0.029-0.156l0.002-0.002c-0.617-1.673-0.961-3.478-0.961-5.366
		c0-4.209,1.705-8.057,4.424-10.855c0.009-0.009,0.018-0.019,0.025-0.029c0.008-0.006,0.014-0.013,0.02-0.02l-0.002-0.001
		c0.059-0.074,0.095-0.167,0.095-0.269c0,0,0,0,0-0.001V5.91c0-0.242-0.196-0.439-0.438-0.439H2.569v0.001
		C2.441,5.475,2.328,5.531,2.25,5.622"/>
	<path fill="#FFFFFF" d="M19.592,5.927v3.601v1.183v0.797v0.001l-0.004-0.001c0,2.927-2.25,5.323-5.124,5.533v0.003
		c-0.228,0.017-0.406,0.204-0.406,0.436c0,0.013,0.002,0.025,0.003,0.038h-0.001c0.002,0.016,0.005,0.031,0.006,0.047
		c0,0.001,0,0.003,0.001,0.004c0.11,1.205,0.601,2.299,1.356,3.157c0.008,0.008,0.015,0.016,0.021,0.024
		c0.047,0.052,0.094,0.103,0.143,0.153c0.012,0.013,0.024,0.026,0.037,0.039c0.045,0.046,0.09,0.09,0.138,0.135
		c0.016,0.015,0.032,0.032,0.05,0.047c0.044,0.041,0.089,0.081,0.134,0.12c0.021,0.018,0.041,0.037,0.062,0.055
		c0.045,0.036,0.089,0.071,0.133,0.106c0.023,0.02,0.049,0.039,0.072,0.058c0.043,0.033,0.086,0.065,0.131,0.096
		c0.027,0.02,0.055,0.04,0.083,0.06c0.042,0.029,0.085,0.057,0.128,0.085c0.029,0.021,0.061,0.04,0.092,0.06
		c0.042,0.026,0.084,0.052,0.127,0.077c0.033,0.02,0.066,0.039,0.102,0.058c0.041,0.023,0.082,0.046,0.125,0.068
		c0.035,0.02,0.072,0.038,0.108,0.056c0.041,0.021,0.083,0.041,0.125,0.061c0.038,0.018,0.077,0.035,0.116,0.053
		c0.041,0.018,0.082,0.036,0.124,0.053c0.041,0.017,0.082,0.033,0.124,0.049c0.04,0.015,0.081,0.031,0.122,0.046
		c0.043,0.015,0.087,0.03,0.131,0.044c0.04,0.013,0.081,0.027,0.121,0.039c0.046,0.014,0.093,0.027,0.139,0.04
		c0.04,0.011,0.079,0.022,0.119,0.032c0.048,0.012,0.099,0.023,0.147,0.034c0.039,0.008,0.076,0.017,0.115,0.025
		c0.051,0.011,0.104,0.019,0.156,0.028c0.037,0.007,0.074,0.014,0.111,0.019c0.057,0.009,0.113,0.015,0.171,0.022
		c0.032,0.004,0.067,0.009,0.101,0.012c0.067,0.007,0.135,0.011,0.201,0.016c0.025,0.001,0.051,0.004,0.075,0.005
		c0.093,0.004,0.187,0.007,0.281,0.007h0.002c0,0,0,0,0.002,0c0.037,0,0.073-0.002,0.11-0.003c3.013-0.061,5.437-2.52,5.437-5.547
		v-2.705v-1.335c0-0.242,0.195-0.439,0.438-0.439h1.521c0.242,0,0.438-0.196,0.438-0.438c0-0.04-0.007-0.077-0.016-0.113
		c-0.506-2.379-1.577-4.563-3.059-6.382v0.002c-0.082-0.097-0.201-0.16-0.336-0.16c-0.011,0-0.019,0.002-0.027,0.003V5.488h-1.9
		h-0.368h-1.803C19.787,5.488,19.592,5.687,19.592,5.927"/>
	<path fill="#FFFFFF" d="M36.064,6.19c0,0.048,0.01,0.094,0.023,0.137l-0.002,0.001c0.004,0.01,0.008,0.02,0.012,0.029
		c0,0.002,0.002,0.004,0.002,0.005c1.101,2.842,1.72,5.977,1.72,9.207c0,14.011-11.358,25.368-25.368,25.368
		c-3.254,0-6.363-0.614-9.222-1.73l0,0c-0.05-0.019-0.103-0.031-0.16-0.031c-0.243,0-0.438,0.197-0.438,0.439
		c0,0.141,0.066,0.264,0.168,0.344l-0.002,0.002c4.324,4.127,10.157,6.645,16.606,6.645c13.301,0,24.084-10.783,24.084-24.084
		c0-6.458-2.51-12.288-6.647-16.613L36.838,5.91c-0.08-0.096-0.199-0.158-0.334-0.158C36.26,5.751,36.064,5.948,36.064,6.19"/>
</g>
</svg>
